<svg width="486" height="486" viewBox="0 0 486 486" fill="none" xmlns="http://www.w3.org/2000/svg">
<g clip-path="url(#clip0_14_75)">
<mask id="mask0_14_75" style="mask-type:luminance" maskUnits="userSpaceOnUse" x="0" y="0" width="486" height="486">
<path d="M486 0H0V486H486V0Z" fill="white"/>
</mask>
<g mask="url(#mask0_14_75)">
<path d="M486 243C486.085 300.361 465.795 355.887 428.748 399.68C427.403 401.278 426.032 402.85 424.636 404.414C408.211 422.887 389.077 438.76 367.889 451.492C363.029 454.41 358.062 457.16 352.989 459.741C352.476 460.002 351.955 460.262 351.442 460.514C350.828 460.826 350.206 461.128 349.584 461.431C336.747 467.714 323.375 472.841 309.627 476.751C308.198 477.154 306.766 477.547 305.331 477.928C287.246 482.713 268.67 485.39 249.971 485.908C248.995 485.933 248.037 485.95 247.112 485.966C246.784 485.975 246.464 485.983 246.145 485.983C245.094 485.992 244.051 486 243 486C223.294 486.014 203.66 483.635 184.529 478.912C182.612 478.441 180.703 477.945 178.803 477.424C168.793 474.691 158.971 471.312 149.399 467.308C144.354 465.206 139.399 462.939 134.533 460.506C133.431 459.951 132.33 459.396 131.245 458.824C130.783 458.597 130.329 458.354 129.875 458.118C103.942 444.431 80.6864 426.185 61.2209 404.254C59.8756 402.749 58.5555 401.219 57.2522 399.68C35.8049 374.251 19.8066 344.69 10.2482 312.827C0.68972 280.963 -2.22531 247.477 1.6836 214.442C5.59251 181.407 16.2421 149.526 32.9729 120.774C49.7036 92.0213 72.1593 67.0096 98.949 47.2883C100.328 46.2709 101.715 45.2619 103.119 44.2781C103.397 44.0847 103.674 43.8913 103.952 43.6979C128.624 26.4155 156.317 13.9096 185.597 6.82753C187.261 6.41552 188.926 6.02875 190.608 5.66719C222.322 -1.26992 255.097 -1.84437 287.034 3.97712C288.708 4.28822 290.381 4.60774 292.046 4.95248C321.064 10.9043 348.739 22.1426 373.69 38.1064C374.245 38.4596 374.8 38.8127 375.355 39.1827C376.473 39.9058 377.592 40.6457 378.693 41.3941C411.747 63.6158 438.824 93.6298 457.539 128.788C476.252 163.948 486.027 203.171 486 243Z" fill="#F2F2F2"/>
<path d="M181.619 368.713L103.952 375.607L103.119 375.683V44.2781C103.397 44.0847 103.674 43.8914 103.952 43.698C120.139 32.3759 137.648 23.0747 156.092 16.001L160.06 70.7391L160.422 75.7504L164.349 130.034L165.56 146.733L181.476 366.779L181.619 368.713Z" fill="#CCCCCC"/>
<path d="M373.69 38.1064C374.245 38.4596 374.8 38.8127 375.355 39.1827V375.683L373.69 375.532L296.864 368.713L297.007 366.779L312.923 146.733L314.134 130.034L318.061 75.7504L318.422 70.7391L322.585 13.3356C340.534 19.5572 357.687 27.8714 373.69 38.1064Z" fill="#CCCCCC"/>
<path d="M373.69 38.1064V380.274C373.69 386.841 369.167 392.18 363.6 392.18H114.042C109.434 392.18 105.524 388.514 104.339 383.511C104.08 382.452 103.95 381.365 103.952 380.274V43.698C103.674 43.8914 103.397 44.0847 103.119 44.2781C101.715 45.2619 100.328 46.2709 98.9489 47.2883V380.274C98.8741 385.262 100.737 390.085 104.145 393.727C105.932 395.6 108.193 396.954 110.687 397.646C111.78 397.943 112.908 398.093 114.042 398.091H363.6C364.736 398.092 365.867 397.942 366.964 397.646C373.673 395.838 378.693 388.741 378.693 380.274V41.3941C377.592 40.6458 376.473 39.9058 375.355 39.1827C374.8 38.8127 374.245 38.4596 373.69 38.1064Z" fill="#CCCCCC"/>
<path d="M376.193 70.7424H101.45V75.7529H376.193V70.7424Z" fill="#CCCCCC"/>
<path d="M185.596 6.82754C187.261 6.41554 188.926 6.02876 190.608 5.66721V141.722H185.596V6.82754Z" fill="#CCCCCC"/>
<path d="M287.034 3.97714C288.708 4.28825 290.381 4.60777 292.046 4.95251V141.722H287.034V3.97714Z" fill="#CCCCCC"/>
<path d="M407.508 366.779H78.4831C72.5022 366.779 66.7662 369.155 62.5371 373.383C58.3079 377.613 55.932 383.349 55.932 389.33C55.932 395.311 58.3079 401.047 62.5371 405.276C66.7662 409.505 72.5022 411.881 78.4831 411.881H407.508C410.711 411.882 413.877 411.199 416.795 409.878C419.711 408.556 422.314 406.628 424.426 404.221C425.382 403.133 426.232 401.956 426.965 400.706C427.533 399.748 428.025 398.747 428.437 397.713C429.811 394.292 430.324 390.586 429.932 386.92C429.54 383.254 428.255 379.741 426.189 376.687C424.123 373.634 421.34 371.133 418.083 369.406C414.826 367.678 411.195 366.776 407.508 366.779Z" fill="#CCCCCC"/>
<path d="M376.193 130.034H103.121V146.735H376.193V130.034Z" fill="#CCCCCC"/>
<path d="M237.152 125.023H242.163C243.369 125.023 244.563 125.26 245.678 125.722C246.792 126.184 247.805 126.86 248.658 127.714C249.511 128.566 250.187 129.58 250.649 130.694C251.111 131.808 251.349 133.003 251.349 134.209H227.966C227.966 131.772 228.934 129.436 230.657 127.714C232.379 125.991 234.715 125.023 237.152 125.023Z" fill="#CCCCCC"/>
<path d="M428.748 399.68C421.444 408.336 413.542 416.469 405.104 424.022H80.8963C72.4573 416.469 64.5567 408.336 57.2521 399.68H428.748Z" fill="#3F3D56"/>
<path d="M270.142 315.37H215.555C215.261 315.367 214.968 315.412 214.689 315.505C214.096 315.688 213.578 316.056 213.211 316.556C212.843 317.055 212.645 317.659 212.646 318.28V404.515H273.06V318.28C273.06 317.897 272.983 317.518 272.837 317.165C272.69 316.811 272.474 316.49 272.204 316.22C271.933 315.95 271.611 315.736 271.258 315.59C270.904 315.444 270.525 315.369 270.142 315.37ZM249.483 357.916C249.484 359.315 249.024 360.675 248.171 361.784C247.358 362.86 246.227 363.654 244.938 364.054C243.65 364.454 242.268 364.439 240.989 364.011C239.709 363.584 238.596 362.766 237.805 361.673C237.015 360.579 236.589 359.265 236.584 357.916V347.91C236.6 346.21 237.287 344.585 238.494 343.388C239.702 342.192 241.333 341.521 243.034 341.521C244.734 341.521 246.365 342.192 247.573 343.388C248.781 344.585 249.467 346.21 249.483 347.91V357.916Z" fill="#2F2E41"/>
<path d="M212.461 401.757V410.073C212.461 410.504 212.632 410.918 212.936 411.223C213.24 411.529 213.653 411.702 214.084 411.704H271.622C272.052 411.701 272.464 411.528 272.769 411.222C273.072 410.916 273.243 410.504 273.245 410.073V401.757H212.461Z" fill="#3F3D56"/>
<path d="M360.531 180.795H127.201C125.196 180.798 123.274 181.595 121.856 183.012C120.437 184.429 119.638 186.35 119.633 188.354V345.808C119.635 347.815 120.433 349.738 121.851 351.158C123.271 352.576 125.195 353.374 127.201 353.376H360.531C362.538 353.374 364.461 352.576 365.881 351.158C367.299 349.738 368.097 347.815 368.099 345.808V188.354C368.094 186.35 367.295 184.429 365.876 183.012C364.458 181.595 362.536 180.798 360.531 180.795Z" fill="#3F3D56"/>
<path d="M358.581 186.261H129.143C128.069 186.263 127.041 186.691 126.283 187.451C125.525 188.211 125.099 189.24 125.099 190.314V343.866C125.1 344.938 125.528 345.966 126.285 346.724C127.044 347.482 128.071 347.909 129.143 347.91H358.581C359.653 347.909 360.68 347.482 361.439 346.724C362.196 345.966 362.623 344.938 362.625 343.866V190.314C362.625 189.24 362.199 188.211 361.441 187.451C360.683 186.691 359.654 186.263 358.581 186.261Z" fill="#4F46E5"/>
<path d="M316.354 411.57L314.235 401.505C314.148 401.095 313.959 400.713 313.685 400.394C313.412 400.076 313.063 399.83 312.671 399.68C312.387 399.569 312.085 399.512 311.78 399.512H179.509C179.204 399.512 178.902 399.569 178.618 399.68C178.226 399.83 177.877 400.076 177.604 400.394C177.33 400.713 177.141 401.095 177.054 401.505L174.935 411.57C174.858 411.935 174.864 412.313 174.952 412.675C175.04 413.039 175.207 413.377 175.443 413.668C175.677 413.957 175.974 414.191 176.311 414.352C176.648 414.513 177.017 414.596 177.39 414.597H313.89C314.265 414.598 314.635 414.516 314.973 414.354C315.311 414.192 315.607 413.956 315.841 413.663C316.077 413.374 316.245 413.037 316.334 412.675C316.422 412.312 316.43 411.935 316.354 411.57Z" fill="#2F2E41"/>
<path d="M184.272 401.325H180.889C180.663 401.325 180.478 401.508 180.478 401.735V403.437C180.478 403.663 180.663 403.848 180.889 403.848H184.272C184.498 403.848 184.683 403.663 184.683 403.437V401.735C184.683 401.508 184.498 401.325 184.272 401.325Z" fill="#3F3D56"/>
<path d="M192.68 401.325H189.297C189.071 401.325 188.887 401.508 188.887 401.735V403.437C188.887 403.663 189.071 403.848 189.297 403.848H192.68C192.907 403.848 193.091 403.663 193.091 403.437V401.735C193.091 401.508 192.907 401.325 192.68 401.325Z" fill="#3F3D56"/>
<path d="M201.089 401.325H197.705C197.479 401.325 197.295 401.508 197.295 401.735V403.437C197.295 403.663 197.479 403.848 197.705 403.848H201.089C201.315 403.848 201.499 403.663 201.499 403.437V401.735C201.499 401.508 201.315 401.325 201.089 401.325Z" fill="#3F3D56"/>
<path d="M209.497 401.325H206.114C205.887 401.325 205.703 401.508 205.703 401.735V403.437C205.703 403.663 205.887 403.848 206.114 403.848H209.497C209.723 403.848 209.907 403.663 209.907 403.437V401.735C209.907 401.508 209.723 401.325 209.497 401.325Z" fill="#3F3D56"/>
<path d="M217.905 401.325H214.522C214.296 401.325 214.112 401.508 214.112 401.735V403.437C214.112 403.663 214.296 403.848 214.522 403.848H217.905C218.132 403.848 218.316 403.663 218.316 403.437V401.735C218.316 401.508 218.132 401.325 217.905 401.325Z" fill="#3F3D56"/>
<path d="M226.314 401.325H222.93C222.704 401.325 222.52 401.508 222.52 401.735V403.437C222.52 403.663 222.704 403.848 222.93 403.848H226.314C226.54 403.848 226.724 403.663 226.724 403.437V401.735C226.724 401.508 226.54 401.325 226.314 401.325Z" fill="#3F3D56"/>
<path d="M234.722 401.325H231.339C231.112 401.325 230.928 401.508 230.928 401.735V403.437C230.928 403.663 231.112 403.848 231.339 403.848H234.722C234.948 403.848 235.132 403.663 235.132 403.437V401.735C235.132 401.508 234.948 401.325 234.722 401.325Z" fill="#3F3D56"/>
<path d="M243.13 401.325H239.747C239.521 401.325 239.336 401.508 239.336 401.735V403.437C239.336 403.663 239.521 403.848 239.747 403.848H243.13C243.356 403.848 243.541 403.663 243.541 403.437V401.735C243.541 401.508 243.356 401.325 243.13 401.325Z" fill="#3F3D56"/>
<path d="M251.539 401.325H248.155C247.929 401.325 247.745 401.508 247.745 401.735V403.437C247.745 403.663 247.929 403.848 248.155 403.848H251.539C251.765 403.848 251.949 403.663 251.949 403.437V401.735C251.949 401.508 251.765 401.325 251.539 401.325Z" fill="#3F3D56"/>
<path d="M259.947 401.325H256.563C256.337 401.325 256.153 401.508 256.153 401.735V403.437C256.153 403.663 256.337 403.848 256.563 403.848H259.947C260.173 403.848 260.357 403.663 260.357 403.437V401.735C260.357 401.508 260.173 401.325 259.947 401.325Z" fill="#3F3D56"/>
<path d="M268.355 401.325H264.972C264.746 401.325 264.561 401.508 264.561 401.735V403.437C264.561 403.663 264.746 403.848 264.972 403.848H268.355C268.581 403.848 268.766 403.663 268.766 403.437V401.735C268.766 401.508 268.581 401.325 268.355 401.325Z" fill="#3F3D56"/>
<path d="M276.764 401.325H273.38C273.154 401.325 272.97 401.508 272.97 401.735V403.437C272.97 403.663 273.154 403.848 273.38 403.848H276.764C276.99 403.848 277.174 403.663 277.174 403.437V401.735C277.174 401.508 276.99 401.325 276.764 401.325Z" fill="#3F3D56"/>
<path d="M285.172 401.325H281.788C281.562 401.325 281.378 401.508 281.378 401.735V403.437C281.378 403.663 281.562 403.848 281.788 403.848H285.172C285.398 403.848 285.582 403.663 285.582 403.437V401.735C285.582 401.508 285.398 401.325 285.172 401.325Z" fill="#3F3D56"/>
<path d="M293.58 401.325H290.197C289.971 401.325 289.786 401.508 289.786 401.735V403.437C289.786 403.663 289.971 403.848 290.197 403.848H293.58C293.806 403.848 293.991 403.663 293.991 403.437V401.735C293.991 401.508 293.806 401.325 293.58 401.325Z" fill="#3F3D56"/>
<path d="M301.988 401.325H298.605C298.379 401.325 298.195 401.508 298.195 401.735V403.437C298.195 403.663 298.379 403.848 298.605 403.848H301.988C302.215 403.848 302.399 403.663 302.399 403.437V401.735C302.399 401.508 302.215 401.325 301.988 401.325Z" fill="#3F3D56"/>
<path d="M310.397 401.325H307.013C306.787 401.325 306.603 401.508 306.603 401.735V403.437C306.603 403.663 306.787 403.848 307.013 403.848H310.397C310.623 403.848 310.807 403.663 310.807 403.437V401.735C310.807 401.508 310.623 401.325 310.397 401.325Z" fill="#3F3D56"/>
<path d="M184.173 405.529H180.789C180.562 405.529 180.379 405.712 180.379 405.94V407.641C180.379 407.868 180.562 408.052 180.789 408.052H184.173C184.399 408.052 184.583 407.868 184.583 407.641V405.94C184.583 405.712 184.399 405.529 184.173 405.529Z" fill="#3F3D56"/>
<path d="M192.581 405.529H189.198C188.971 405.529 188.787 405.712 188.787 405.94V407.641C188.787 407.868 188.971 408.052 189.198 408.052H192.581C192.807 408.052 192.992 407.868 192.992 407.641V405.94C192.992 405.712 192.807 405.529 192.581 405.529Z" fill="#3F3D56"/>
<path d="M200.99 405.529H197.606C197.379 405.529 197.196 405.712 197.196 405.94V407.641C197.196 407.868 197.379 408.052 197.606 408.052H200.99C201.216 408.052 201.4 407.868 201.4 407.641V405.94C201.4 405.712 201.216 405.529 200.99 405.529Z" fill="#3F3D56"/>
<path d="M209.398 405.529H206.014C205.787 405.529 205.604 405.712 205.604 405.94V407.641C205.604 407.868 205.787 408.052 206.014 408.052H209.398C209.624 408.052 209.808 407.868 209.808 407.641V405.94C209.808 405.712 209.624 405.529 209.398 405.529Z" fill="#3F3D56"/>
<path d="M217.806 405.529H214.423C214.196 405.529 214.012 405.712 214.012 405.94V407.641C214.012 407.868 214.196 408.052 214.423 408.052H217.806C218.032 408.052 218.216 407.868 218.216 407.641V405.94C218.216 405.712 218.032 405.529 217.806 405.529Z" fill="#3F3D56"/>
<path d="M226.214 405.529H222.831C222.604 405.529 222.421 405.712 222.421 405.94V407.641C222.421 407.868 222.604 408.052 222.831 408.052H226.214C226.441 408.052 226.625 407.868 226.625 407.641V405.94C226.625 405.712 226.441 405.529 226.214 405.529Z" fill="#3F3D56"/>
<path d="M234.623 405.529H231.239C231.012 405.529 230.829 405.712 230.829 405.94V407.641C230.829 407.868 231.012 408.052 231.239 408.052H234.623C234.849 408.052 235.033 407.868 235.033 407.641V405.94C235.033 405.712 234.849 405.529 234.623 405.529Z" fill="#3F3D56"/>
<path d="M243.031 405.529H239.648C239.421 405.529 239.237 405.712 239.237 405.94V407.641C239.237 407.868 239.421 408.052 239.648 408.052H243.031C243.257 408.052 243.441 407.868 243.441 407.641V405.94C243.441 405.712 243.257 405.529 243.031 405.529Z" fill="#3F3D56"/>
<path d="M251.439 405.529H248.056C247.829 405.529 247.646 405.712 247.646 405.94V407.641C247.646 407.868 247.829 408.052 248.056 408.052H251.439C251.666 408.052 251.85 407.868 251.85 407.641V405.94C251.85 405.712 251.666 405.529 251.439 405.529Z" fill="#3F3D56"/>
<path d="M259.848 405.529H256.464C256.237 405.529 256.054 405.712 256.054 405.94V407.641C256.054 407.868 256.237 408.052 256.464 408.052H259.848C260.074 408.052 260.258 407.868 260.258 407.641V405.94C260.258 405.712 260.074 405.529 259.848 405.529Z" fill="#3F3D56"/>
<path d="M268.256 405.529H264.872C264.645 405.529 264.462 405.712 264.462 405.94V407.641C264.462 407.868 264.645 408.052 264.872 408.052H268.256C268.482 408.052 268.666 407.868 268.666 407.641V405.94C268.666 405.712 268.482 405.529 268.256 405.529Z" fill="#3F3D56"/>
<path d="M276.664 405.529H273.281C273.054 405.529 272.87 405.712 272.87 405.94V407.641C272.87 407.868 273.054 408.052 273.281 408.052H276.664C276.89 408.052 277.075 407.868 277.075 407.641V405.94C277.075 405.712 276.89 405.529 276.664 405.529Z" fill="#3F3D56"/>
<path d="M285.073 405.529H281.689C281.462 405.529 281.279 405.712 281.279 405.94V407.641C281.279 407.868 281.462 408.052 281.689 408.052H285.073C285.299 408.052 285.483 407.868 285.483 407.641V405.94C285.483 405.712 285.299 405.529 285.073 405.529Z" fill="#3F3D56"/>
<path d="M293.481 405.529H290.097C289.87 405.529 289.687 405.712 289.687 405.94V407.641C289.687 407.868 289.87 408.052 290.097 408.052H293.481C293.707 408.052 293.891 407.868 293.891 407.641V405.94C293.891 405.712 293.707 405.529 293.481 405.529Z" fill="#3F3D56"/>
<path d="M301.889 405.529H298.506C298.279 405.529 298.095 405.712 298.095 405.94V407.641C298.095 407.868 298.279 408.052 298.506 408.052H301.889C302.115 408.052 302.3 407.868 302.3 407.641V405.94C302.3 405.712 302.115 405.529 301.889 405.529Z" fill="#3F3D56"/>
<path d="M310.298 405.529H306.914C306.687 405.529 306.504 405.712 306.504 405.94V407.641C306.504 407.868 306.687 408.052 306.914 408.052H310.298C310.524 408.052 310.708 407.868 310.708 407.641V405.94C310.708 405.712 310.524 405.529 310.298 405.529Z" fill="#3F3D56"/>
<path d="M253.962 410.574H221.149C220.922 410.574 220.739 410.757 220.739 410.984V412.686C220.739 412.912 220.922 413.097 221.149 413.097H253.962C254.188 413.097 254.372 412.912 254.372 412.686V410.984C254.372 410.757 254.188 410.574 253.962 410.574Z" fill="#3F3D56"/>
<path d="M347.051 207.414H132.368C132.144 207.408 131.932 207.316 131.776 207.157C131.619 206.997 131.532 206.783 131.532 206.559C131.532 206.336 131.619 206.122 131.776 205.962C131.932 205.803 132.144 205.711 132.368 205.706H347.051C347.275 205.711 347.487 205.803 347.643 205.962C347.799 206.122 347.886 206.336 347.886 206.559C347.886 206.783 347.799 206.997 347.643 207.157C347.487 207.316 347.275 207.408 347.051 207.414Z" fill="#3F3D56"/>
<path d="M146.981 201.347C149.744 201.347 151.984 199.057 151.984 196.232C151.984 193.407 149.744 191.117 146.981 191.117C144.218 191.117 141.978 193.407 141.978 196.232C141.978 199.057 144.218 201.347 146.981 201.347Z" fill="#3F3D56"/>
<path d="M164.265 201.347C167.028 201.347 169.268 199.057 169.268 196.232C169.268 193.407 167.028 191.117 164.265 191.117C161.502 191.117 159.263 193.407 159.263 196.232C159.263 199.057 161.502 201.347 164.265 201.347Z" fill="#3F3D56"/>
<path d="M181.55 201.347C184.313 201.347 186.553 199.057 186.553 196.232C186.553 193.407 184.313 191.117 181.55 191.117C178.787 191.117 176.547 193.407 176.547 196.232C176.547 199.057 178.787 201.347 181.55 201.347Z" fill="#3F3D56"/>
<path d="M336.643 192.382H324.367C324.124 192.388 323.894 192.488 323.724 192.662C323.554 192.835 323.459 193.068 323.459 193.311C323.459 193.554 323.554 193.787 323.724 193.96C323.894 194.134 324.124 194.234 324.367 194.24H336.643C336.887 194.237 337.12 194.138 337.292 193.964C337.463 193.79 337.56 193.555 337.56 193.311C337.56 193.067 337.463 192.833 337.292 192.659C337.12 192.485 336.887 192.385 336.643 192.382Z" fill="#3F3D56"/>
<path d="M336.643 195.871H324.367C324.124 195.877 323.893 195.977 323.723 196.151C323.553 196.325 323.458 196.558 323.458 196.801C323.458 197.044 323.553 197.276 323.723 197.451C323.893 197.624 324.124 197.725 324.367 197.73H336.643C336.888 197.727 337.121 197.628 337.293 197.454C337.465 197.28 337.562 197.045 337.562 196.801C337.562 196.556 337.465 196.321 337.293 196.147C337.121 195.973 336.888 195.875 336.643 195.871Z" fill="#3F3D56"/>
<path d="M336.643 199.361H324.367C324.124 199.367 323.894 199.467 323.724 199.641C323.554 199.814 323.459 200.047 323.459 200.29C323.459 200.533 323.554 200.766 323.724 200.939C323.894 201.113 324.124 201.213 324.367 201.219H336.643C336.887 201.216 337.12 201.117 337.292 200.943C337.463 200.768 337.56 200.534 337.56 200.29C337.56 200.046 337.463 199.812 337.292 199.638C337.12 199.463 336.887 199.364 336.643 199.361Z" fill="#3F3D56"/>
<path d="M150.879 227.254H146.468C145.131 227.254 144.046 228.338 144.046 229.675C144.046 231.013 145.131 232.097 146.468 232.097H150.879C152.216 232.097 153.3 231.013 153.3 229.675C153.3 228.338 152.216 227.254 150.879 227.254Z" fill="#E6E6E6"/>
<path d="M201.328 227.254H196.917C195.581 227.254 194.496 228.338 194.496 229.675C194.496 231.013 195.581 232.097 196.917 232.097H201.328C202.666 232.097 203.75 231.013 203.75 229.675C203.75 228.338 202.666 227.254 201.328 227.254Z" fill="#E6E6E6"/>
<path d="M215.623 227.254H211.212C209.875 227.254 208.79 228.338 208.79 229.675C208.79 231.013 209.875 232.097 211.212 232.097H215.623C216.96 232.097 218.044 231.013 218.044 229.675C218.044 228.338 216.96 227.254 215.623 227.254Z" fill="#E6E6E6"/>
<path d="M187.606 226.85H160.19C158.853 226.85 157.768 227.935 157.768 229.272C157.768 230.61 158.853 231.693 160.19 231.693H187.606C188.944 231.693 190.028 230.61 190.028 229.272C190.028 227.935 188.944 226.85 187.606 226.85Z" fill="#E6E6E6"/>
<path d="M254.872 226.85H227.456C226.119 226.85 225.035 227.935 225.035 229.272C225.035 230.61 226.119 231.693 227.456 231.693H254.872C256.21 231.693 257.294 230.61 257.294 229.272C257.294 227.935 256.21 226.85 254.872 226.85Z" fill="#E6E6E6"/>
<path d="M164.332 238.185H159.921C158.584 238.185 157.499 239.269 157.499 240.606C157.499 241.944 158.584 243.028 159.921 243.028H164.332C165.67 243.028 166.754 241.944 166.754 240.606C166.754 239.269 165.67 238.185 164.332 238.185Z" fill="#E6E6E6"/>
<path d="M214.782 238.185H210.371C209.034 238.185 207.949 239.269 207.949 240.606C207.949 241.944 209.034 243.028 210.371 243.028H214.782C216.12 243.028 217.203 241.944 217.203 240.606C217.203 239.269 216.12 238.185 214.782 238.185Z" fill="#E6E6E6"/>
<path d="M229.076 238.185H224.665C223.328 238.185 222.243 239.269 222.243 240.606C222.243 241.944 223.328 243.028 224.665 243.028H229.076C230.414 243.028 231.497 241.944 231.497 240.606C231.497 239.269 230.414 238.185 229.076 238.185Z" fill="#E6E6E6"/>
<path d="M201.059 237.781H173.643C172.306 237.781 171.222 238.866 171.222 240.203C171.222 241.54 172.306 242.624 173.643 242.624H201.059C202.397 242.624 203.481 241.54 203.481 240.203C203.481 238.866 202.397 237.781 201.059 237.781Z" fill="#E6E6E6"/>
<path d="M268.326 237.781H240.91C239.573 237.781 238.488 238.866 238.488 240.203C238.488 241.54 239.573 242.624 240.91 242.624H268.326C269.664 242.624 270.747 241.54 270.747 240.203C270.747 238.866 269.664 237.781 268.326 237.781Z" fill="#E6E6E6"/>
<path d="M177.785 249.115H173.374C172.037 249.115 170.953 250.2 170.953 251.537C170.953 252.875 172.037 253.959 173.374 253.959H177.785C179.123 253.959 180.207 252.875 180.207 251.537C180.207 250.2 179.123 249.115 177.785 249.115Z" fill="#E6E6E6"/>
<path d="M228.235 249.115H223.824C222.487 249.115 221.402 250.2 221.402 251.537C221.402 252.875 222.487 253.959 223.824 253.959H228.235C229.573 253.959 230.657 252.875 230.657 251.537C230.657 250.2 229.573 249.115 228.235 249.115Z" fill="#E6E6E6"/>
<path d="M242.529 249.115H238.118C236.781 249.115 235.697 250.2 235.697 251.537C235.697 252.875 236.781 253.959 238.118 253.959H242.529C243.867 253.959 244.951 252.875 244.951 251.537C244.951 250.2 243.867 249.115 242.529 249.115Z" fill="#E6E6E6"/>
<path d="M214.513 248.712H187.097C185.76 248.712 184.675 249.796 184.675 251.133C184.675 252.471 185.76 253.555 187.097 253.555H214.513C215.85 253.555 216.934 252.471 216.934 251.133C216.934 249.796 215.85 248.712 214.513 248.712Z" fill="#E6E6E6"/>
<path d="M281.779 248.712H254.363C253.026 248.712 251.941 249.796 251.941 251.133C251.941 252.471 253.026 253.555 254.363 253.555H281.779C283.117 253.555 284.201 252.471 284.201 251.133C284.201 249.796 283.117 248.712 281.779 248.712Z" fill="#E6E6E6"/>
<path d="M191.238 260.046H186.827C185.491 260.046 184.406 261.131 184.406 262.468C184.406 263.805 185.491 264.889 186.827 264.889H191.238C192.576 264.889 193.66 263.805 193.66 262.468C193.66 261.131 192.576 260.046 191.238 260.046Z" fill="#E6E6E6"/>
<path d="M241.688 260.046H237.277C235.94 260.046 234.856 261.131 234.856 262.468C234.856 263.805 235.94 264.889 237.277 264.889H241.688C243.026 264.889 244.11 263.805 244.11 262.468C244.11 261.131 243.026 260.046 241.688 260.046Z" fill="#E6E6E6"/>
<path d="M255.982 260.046H251.571C250.235 260.046 249.15 261.131 249.15 262.468C249.15 263.805 250.235 264.889 251.571 264.889H255.982C257.32 264.889 258.404 263.805 258.404 262.468C258.404 261.131 257.32 260.046 255.982 260.046Z" fill="#E6E6E6"/>
<path d="M227.966 259.643H200.55C199.213 259.643 198.128 260.727 198.128 262.064C198.128 263.402 199.213 264.486 200.55 264.486H227.966C229.304 264.486 230.388 263.402 230.388 262.064C230.388 260.727 229.304 259.643 227.966 259.643Z" fill="#E6E6E6"/>
<path d="M201.328 303.512H196.917C195.581 303.512 194.496 304.596 194.496 305.934C194.496 307.271 195.581 308.355 196.917 308.355H201.328C202.666 308.355 203.75 307.271 203.75 305.934C203.75 304.596 202.666 303.512 201.328 303.512Z" fill="#E6E6E6"/>
<path d="M215.623 303.512H211.212C209.875 303.512 208.79 304.596 208.79 305.934C208.79 307.271 209.875 308.355 211.212 308.355H215.623C216.96 308.355 218.044 307.271 218.044 305.934C218.044 304.596 216.96 303.512 215.623 303.512Z" fill="#E6E6E6"/>
<path d="M254.872 303.916H227.456C226.119 303.916 225.035 304.999 225.035 306.337C225.035 307.674 226.119 308.759 227.456 308.759H254.872C256.21 308.759 257.294 307.674 257.294 306.337C257.294 304.999 256.21 303.916 254.872 303.916Z" fill="#E6E6E6"/>
<path d="M150.879 303.512H146.468C145.131 303.512 144.046 304.596 144.046 305.934C144.046 307.271 145.131 308.355 146.468 308.355H150.879C152.216 308.355 153.3 307.271 153.3 305.934C153.3 304.596 152.216 303.512 150.879 303.512Z" fill="#E6E6E6"/>
<path d="M187.606 303.916H160.19C158.853 303.916 157.768 304.999 157.768 306.337C157.768 307.674 158.853 308.759 160.19 308.759H187.606C188.944 308.759 190.028 307.674 190.028 306.337C190.028 304.999 188.944 303.916 187.606 303.916Z" fill="#E6E6E6"/>
<path d="M164.332 292.581H159.921C158.584 292.581 157.499 293.665 157.499 295.003C157.499 296.34 158.584 297.424 159.921 297.424H164.332C165.67 297.424 166.754 296.34 166.754 295.003C166.754 293.665 165.67 292.581 164.332 292.581Z" fill="#E6E6E6"/>
<path d="M214.782 292.581H210.371C209.034 292.581 207.949 293.665 207.949 295.003C207.949 296.34 209.034 297.424 210.371 297.424H214.782C216.12 297.424 217.203 296.34 217.203 295.003C217.203 293.665 216.12 292.581 214.782 292.581Z" fill="#E6E6E6"/>
<path d="M229.076 292.581H224.665C223.328 292.581 222.243 293.665 222.243 295.003C222.243 296.34 223.328 297.424 224.665 297.424H229.076C230.414 297.424 231.497 296.34 231.497 295.003C231.497 293.665 230.414 292.581 229.076 292.581Z" fill="#E6E6E6"/>
<path d="M201.059 292.985H173.643C172.306 292.985 171.222 294.069 171.222 295.406C171.222 296.743 172.306 297.828 173.643 297.828H201.059C202.397 297.828 203.481 296.743 203.481 295.406C203.481 294.069 202.397 292.985 201.059 292.985Z" fill="#E6E6E6"/>
<path d="M177.785 281.65H173.374C172.037 281.65 170.953 282.734 170.953 284.072C170.953 285.409 172.037 286.494 173.374 286.494H177.785C179.123 286.494 180.207 285.409 180.207 284.072C180.207 282.734 179.123 281.65 177.785 281.65Z" fill="#E6E6E6"/>
<path d="M228.235 281.65H223.824C222.487 281.65 221.402 282.734 221.402 284.072C221.402 285.409 222.487 286.494 223.824 286.494H228.235C229.573 286.494 230.657 285.409 230.657 284.072C230.657 282.734 229.573 281.65 228.235 281.65Z" fill="#E6E6E6"/>
<path d="M242.529 281.65H238.118C236.781 281.65 235.697 282.734 235.697 284.072C235.697 285.409 236.781 286.494 238.118 286.494H242.529C243.867 286.494 244.951 285.409 244.951 284.072C244.951 282.734 243.867 281.65 242.529 281.65Z" fill="#E6E6E6"/>
<path d="M214.513 282.054H187.097C185.76 282.054 184.675 283.138 184.675 284.476C184.675 285.813 185.76 286.897 187.097 286.897H214.513C215.85 286.897 216.934 285.813 216.934 284.476C216.934 283.138 215.85 282.054 214.513 282.054Z" fill="#E6E6E6"/>
<path d="M191.238 270.72H186.827C185.491 270.72 184.406 271.803 184.406 273.141C184.406 274.478 185.491 275.563 186.827 275.563H191.238C192.576 275.563 193.66 274.478 193.66 273.141C193.66 271.803 192.576 270.72 191.238 270.72Z" fill="#E6E6E6"/>
<path d="M241.688 270.72H237.277C235.94 270.72 234.856 271.803 234.856 273.141C234.856 274.478 235.94 275.563 237.277 275.563H241.688C243.026 275.563 244.11 274.478 244.11 273.141C244.11 271.803 243.026 270.72 241.688 270.72Z" fill="#E6E6E6"/>
<path d="M255.982 270.72H251.571C250.235 270.72 249.15 271.803 249.15 273.141C249.15 274.478 250.235 275.563 251.571 275.563H255.982C257.32 275.563 258.404 274.478 258.404 273.141C258.404 271.803 257.32 270.72 255.982 270.72Z" fill="#E6E6E6"/>
<path d="M227.966 271.123H200.55C199.213 271.123 198.128 272.207 198.128 273.545C198.128 274.882 199.213 275.966 200.55 275.966H227.966C229.304 275.966 230.388 274.882 230.388 273.545C230.388 272.207 229.304 271.123 227.966 271.123Z" fill="#E6E6E6"/>
<path d="M349.626 461.423C349.113 461.683 348.591 461.944 348.079 462.196C334.793 468.839 324.165 472.614 309.627 476.751C308.4 463.045 307.214 438.956 306.062 424.022C305.76 420.146 305.457 416.892 305.163 414.597C305.089 413.377 304.839 412.173 304.423 411.023L304.473 414.597L304.599 424.022L305.331 477.928C287.246 482.713 268.67 485.39 249.97 485.908C248.995 485.933 248.037 485.95 247.112 485.966C246.784 485.975 246.464 485.983 246.145 485.983C245.094 485.992 244.051 486 243 486C223.294 486.014 203.66 483.635 184.529 478.912C184.941 465.349 185.353 441.528 185.748 424.022C185.832 420.6 185.908 417.413 185.992 414.597C186.151 408.576 186.32 404.238 186.479 402.783C186.338 403.041 186.228 403.314 186.151 403.599C185.373 407.224 184.841 410.899 184.562 414.597C184.268 417.413 183.974 420.6 183.679 424.022C182.115 442.21 180.484 466.938 178.803 477.424C168.793 474.691 158.971 471.312 149.399 467.308C144.354 465.206 139.399 462.939 134.533 460.506C135.458 454.452 136.425 447.667 137.417 440.629C138.19 435.172 138.989 429.563 139.805 424.022C141.066 415.463 142.361 407.071 143.673 399.68C145.59 388.884 147.557 380.207 149.508 376.221C151.358 372.437 153.208 368.704 154.999 365.131C155.621 363.878 156.243 362.642 156.848 361.439C156.991 361.153 157.134 360.876 157.277 360.599C158.564 358.068 159.808 355.646 160.994 353.376C162.011 351.433 162.978 349.6 163.895 347.91C166.114 343.807 167.998 340.536 169.394 338.468C175.229 329.616 183.916 323.027 194.013 319.793L194.265 319.726L194.442 319.801L211.637 314.521L214.151 313.747L215.841 313.226L221.794 308.694L225.031 306.23L228.067 303.918L234.003 299.403L270.756 301.665L277.911 318.893L293.937 324.754L294.215 324.628L294.459 324.527L294.711 324.594C304.806 327.831 313.493 334.42 319.331 343.269C320.121 344.455 321.079 346.019 322.164 347.91C323.089 349.516 324.098 351.349 325.191 353.376C326.747 356.26 328.445 359.514 330.245 363.037C330.64 363.811 331.043 364.601 331.447 365.4C332.195 366.88 332.955 368.391 333.726 369.932C335.517 373.505 337.366 377.239 339.216 381.031C340.822 384.318 342.445 391.079 344.043 399.68C345.363 406.827 346.674 415.253 347.944 424.022C349.609 435.39 347.835 449.003 349.34 459.463C349.432 460.128 349.533 460.775 349.626 461.423Z" fill="#3F3D56"/>
<path d="M243.517 285.651C267.124 285.651 286.262 266.513 286.262 242.906C286.262 219.299 267.124 200.161 243.517 200.161C219.91 200.161 200.773 219.299 200.773 242.906C200.773 266.513 219.91 285.651 243.517 285.651Z" fill="#A0616A"/>
<path d="M314.008 186.261C313.163 184.288 312.039 182.448 310.67 180.795C304.179 172.866 292.374 169.377 280.257 178.761C277.925 178.239 275.494 178.379 273.236 179.164C272.171 179.55 271.172 180.101 270.277 180.795C268.442 182.226 267.011 184.11 266.123 186.261C265.649 187.397 265.337 188.594 265.198 189.817C262.203 188.261 259.033 187.067 255.755 186.261C247.714 184.26 239.304 184.26 231.262 186.261C228.685 186.912 226.204 187.896 223.88 189.187C219.944 191.457 217.683 194.324 217.279 197.511C211.603 197.831 205.701 200.816 201.303 205.709C200.807 206.256 200.328 206.827 199.882 207.416C196.184 212.255 194.197 218.185 194.232 224.275V225.343H195.3C198.226 225.34 201.124 225.905 203.834 227.007C205.591 227.713 207.254 228.63 208.787 229.74C209.79 230.451 210.737 231.238 211.62 232.094C213.668 234.077 215.403 236.359 216.766 238.863C220.26 245.19 221.471 252.526 220.197 259.64C219.904 261.287 219.477 262.907 218.919 264.483C218.124 266.732 217.078 268.885 215.799 270.899C215.749 270.974 215.707 271.05 215.656 271.126C215.093 272.025 214.555 272.942 214.05 273.867C213.672 274.556 213.319 275.263 212.991 275.969C212.032 277.935 211.223 279.97 210.569 282.057C209.399 285.748 208.709 289.574 208.518 293.441C208.459 294.467 208.442 295.493 208.476 296.519C208.525 299.163 208.815 301.798 209.342 304.389C209.417 304.742 209.493 305.087 209.569 305.44L210.182 308.122L211.637 314.521L212.646 318.927L213.579 323.013L214.958 321.037C215.429 320.365 216.615 318.296 218.204 315.37C219.255 313.462 220.474 311.183 221.794 308.694C223.636 305.205 225.654 301.312 227.63 297.427C228.428 295.855 229.219 294.291 229.984 292.76C231.43 289.859 232.792 287.06 233.961 284.571C235.037 282.275 235.954 280.24 236.635 278.609C236.845 279.677 237.022 280.762 237.156 281.855C237.308 282.965 237.417 284.091 237.476 285.218C237.493 285.386 237.501 285.563 237.509 285.731L237.543 286.421L237.551 286.622L238.443 286.74C243.584 287.291 248.766 287.33 253.914 286.858H253.922C260.742 286.344 267.434 284.723 273.732 282.057C277.31 280.504 280.65 278.455 283.654 275.969C285.058 274.807 286.368 273.536 287.572 272.168C287.875 271.824 288.169 271.479 288.455 271.126C290.119 269.081 291.544 266.852 292.701 264.483C293.477 262.92 294.134 261.302 294.669 259.64C297.898 249.861 297.713 237.661 294.114 223.165C295.086 222.977 296.017 222.619 296.864 222.105C299.504 220.516 301.337 217.363 301.909 213.512L302.817 213.756C306.036 212.257 308.903 210.097 311.233 207.416C311.695 206.87 312.127 206.3 312.528 205.709C316.64 199.655 316.674 192.39 314.008 186.261Z" fill="#2F2E41"/>
<path opacity="0.2" d="M173.48 399.643L180.625 372.071L186.933 395.863L173.48 399.643Z" fill="black"/>
<path d="M363.6 381.678C361.044 416.892 363.693 432.397 349.584 461.431C336.747 467.715 323.375 472.841 309.627 476.751C308.198 477.154 306.766 477.547 305.331 477.928C287.246 482.713 268.67 485.39 249.971 485.908C248.995 485.933 248.037 485.95 247.112 485.966C246.784 485.975 246.464 485.983 246.145 485.983C245.094 485.992 244.051 486 243 486C223.294 486.014 203.66 483.635 184.529 478.912C182.612 478.441 180.703 477.945 178.803 477.424C168.793 474.691 158.971 471.312 149.399 467.308C144.354 465.206 139.399 462.939 134.533 460.506C133.431 459.951 132.33 459.396 131.245 458.824C125.671 449.02 122.501 437.097 122.433 422.77C126.293 398.083 355.074 360.388 363.6 381.678Z" fill="#2F2E41"/>
<path opacity="0.2" d="M363.594 387.709C363.724 385.528 363.87 383.277 364.04 380.931C355.514 359.642 126.732 397.336 122.873 422.023C122.884 424.286 122.981 426.483 123.144 428.628C132.49 404.262 349.835 368.436 363.594 387.709Z" fill="black"/>
<path d="M137.136 287.692C137.192 286.929 137.083 286.164 136.818 285.447C136.553 284.73 136.138 284.078 135.6 283.535C135.062 282.992 134.414 282.57 133.7 282.299C132.985 282.027 132.221 281.912 131.458 281.961C131.174 281.972 130.89 282.007 130.613 282.067L97.1798 289.619C96.4323 289.801 95.7319 290.136 95.1223 290.604C94.5127 291.073 94.0082 291.664 93.6408 292.339C93.1506 292.358 92.6637 292.429 92.1878 292.551C91.1477 292.786 90.1639 293.224 89.2928 293.841C88.4217 294.457 87.681 295.238 87.1117 296.141C86.5433 297.044 86.1574 298.049 85.9774 299.1C85.7967 300.152 85.8252 301.228 86.0615 302.269C86.297 303.309 86.7359 304.293 87.3514 305.164C87.9677 306.035 88.7497 306.776 89.6519 307.345C91.4739 308.494 93.6786 308.872 95.7798 308.396C96.9755 308.118 98.0946 307.577 99.054 306.811L110.383 338.713C110.949 339.712 111.824 340.503 112.876 340.964C113.927 341.426 115.101 341.534 116.22 341.275L137.954 336.362C139.065 336.103 140.064 335.497 140.809 334.634C141.554 333.77 142.006 332.693 142.1 331.556L137.136 287.692ZM95.2779 306.125C93.777 306.463 92.2038 306.193 90.9022 305.373C89.6006 304.553 88.6773 303.251 88.3343 301.751C87.9921 300.25 88.2578 298.676 89.0742 297.372C89.8907 296.069 91.1914 295.142 92.6898 294.795C92.7957 294.769 92.9017 294.795 93.0068 294.769C92.9992 295.731 93.2447 296.679 93.7198 297.515L97.8659 304.751C97.1445 305.436 96.2499 305.911 95.2779 306.125Z" fill="#2F2E41"/>
<path d="M131.458 281.961C131.775 286.186 124.539 291.045 114.847 292.973C105.947 294.795 97.9719 293.528 95.7269 290.2C96.1784 289.933 96.6678 289.737 97.1798 289.619L130.613 282.067C130.89 282.007 131.174 281.972 131.458 281.961Z" fill="#3F3D56"/>
<path d="M108.335 389.225L127.114 379.835L111.466 337.583L107.341 316.275C106.805 313.506 105.552 310.927 103.707 308.795C101.862 306.663 99.4904 305.052 96.8275 304.123C94.1654 303.195 91.3058 302.981 88.5344 303.504C85.7639 304.027 83.1789 305.269 81.038 307.103C77.8654 309.822 75.8734 313.668 75.4824 317.829C75.0914 321.988 76.3319 326.138 78.9422 329.401L94.2512 348.538L108.335 389.225Z" fill="#A0616A"/>
<path d="M127.114 372.011L102.076 384.53L121.077 444.069C122.442 448.344 124.888 452.194 128.179 455.246C131.469 458.298 135.492 460.448 139.858 461.487C145.241 462.77 150.893 462.303 155.993 460.157C161.094 458.01 165.378 454.296 168.225 449.55L218.612 363.185C222.183 357.234 223.285 350.123 221.683 343.37C220.082 336.616 215.903 330.758 210.039 327.044C206.886 325.047 203.347 323.737 199.654 323.198C195.96 322.659 192.195 322.903 188.602 323.916C185.009 324.928 181.67 326.685 178.801 329.074C175.933 331.462 173.6 334.428 171.953 337.778L141.199 403.309L127.114 372.011Z" fill="#3F3D56"/>
<path d="M119.37 318.205C119.323 318.205 119.278 318.197 119.233 318.182L113.767 316.3C113.7 316.278 113.642 316.239 113.594 316.188C113.547 316.136 113.513 316.074 113.495 316.006C113.478 315.939 113.478 315.867 113.495 315.8C113.513 315.732 113.547 315.67 113.594 315.618L117.66 311.192C117.697 311.151 117.741 311.117 117.792 311.095C117.842 311.071 117.896 311.058 117.952 311.055C118.007 311.053 118.062 311.061 118.114 311.08C118.166 311.099 118.214 311.127 118.254 311.165C118.296 311.202 118.328 311.248 118.352 311.298C118.375 311.348 118.388 311.402 118.391 311.458C118.392 311.513 118.384 311.568 118.365 311.62C118.345 311.671 118.317 311.719 118.279 311.76L114.647 315.714L119.506 317.387C119.601 317.419 119.68 317.484 119.731 317.57C119.782 317.655 119.801 317.756 119.785 317.854C119.768 317.952 119.717 318.042 119.642 318.105C119.566 318.17 119.469 318.205 119.37 318.205Z" fill="#4F46E5"/>
<path d="M126.863 316.671C126.78 316.671 126.697 316.646 126.628 316.6C126.558 316.553 126.505 316.486 126.473 316.409C126.442 316.331 126.435 316.246 126.452 316.164C126.469 316.082 126.51 316.007 126.571 315.949L130.266 312.376L125.302 310.33C125.251 310.309 125.205 310.279 125.165 310.24C125.126 310.201 125.095 310.155 125.074 310.103C125.052 310.053 125.042 309.998 125.042 309.943C125.042 309.887 125.052 309.833 125.074 309.781C125.095 309.731 125.125 309.684 125.164 309.645C125.203 309.606 125.249 309.575 125.301 309.553C125.352 309.532 125.406 309.521 125.461 309.521C125.517 309.521 125.571 309.532 125.623 309.553L131.18 311.844C131.244 311.871 131.302 311.913 131.345 311.967C131.39 312.02 131.419 312.085 131.433 312.153C131.446 312.222 131.442 312.293 131.421 312.359C131.4 312.426 131.362 312.486 131.312 312.534L127.155 316.553C127.077 316.629 126.972 316.671 126.863 316.671Z" fill="#4F46E5"/>
<path d="M120.518 320.777C120.476 320.777 120.434 320.771 120.394 320.758C120.341 320.741 120.292 320.715 120.25 320.68C120.207 320.645 120.171 320.602 120.145 320.553C120.12 320.504 120.104 320.451 120.099 320.396C120.093 320.34 120.099 320.285 120.115 320.233L123.996 307.62C124.029 307.514 124.103 307.425 124.202 307.373C124.3 307.321 124.415 307.311 124.521 307.344C124.628 307.376 124.717 307.45 124.769 307.548C124.821 307.646 124.832 307.762 124.799 307.868L120.92 320.48C120.893 320.567 120.84 320.641 120.768 320.694C120.695 320.748 120.607 320.777 120.518 320.777Z" fill="#4F46E5"/>
</g>
</g>
<defs>
<clipPath id="clip0_14_75">
<rect width="486" height="486" fill="white"/>
</clipPath>
</defs>
</svg>
